<?xml version="1.0" encoding="UTF-8" standalone="no"?>
<!DOCTYPE svg PUBLIC "-//W3C//DTD SVG 1.1//EN" "http://www.w3.org/Graphics/SVG/1.1/DTD/svg11.dtd">
<svg width="100%" height="100%" viewBox="0 0 15 12" version="1.1" xmlns="http://www.w3.org/2000/svg" xmlns:xlink="http://www.w3.org/1999/xlink" xml:space="preserve" xmlns:serif="http://www.serif.com/" style="fill-rule:evenodd;clip-rule:evenodd;stroke-linejoin:round;stroke-miterlimit:2;">
    <path d="M3.854,11.962C2.832,11.962 1.852,11.556 1.13,10.833C0.407,10.111 0.002,9.131 0.002,8.11C0.002,6.747 0.002,5.215 0.002,3.852C0.002,2.83 0.407,1.851 1.13,1.128C1.852,0.406 2.832,-0 3.854,0C5.858,0 8.302,0 10.306,0C11.328,-0 12.308,0.406 13.03,1.128C13.753,1.851 14.158,2.83 14.158,3.852C14.158,5.215 14.158,6.747 14.158,8.11C14.158,9.131 13.753,10.111 13.03,10.833C12.308,11.556 11.328,11.962 10.306,11.962C8.302,11.962 5.858,11.962 3.854,11.962ZM6.155,8.795C7.236,8.795 7.794,8.12 7.794,7.267C7.794,6.566 7.321,5.983 6.712,5.89C7.245,5.781 7.684,5.299 7.684,4.598C7.684,3.847 7.135,3.163 6.062,3.163L3.095,3.163L3.095,8.795L6.155,8.795ZM11.168,8.795L9.164,5.885L11.162,3.163L9.683,3.163L7.669,5.885L8.128,6.532L9.683,8.795L11.168,8.795ZM5.85,6.456C6.315,6.456 6.569,6.743 6.569,7.098C6.569,7.503 6.298,7.74 5.85,7.74L4.295,7.74L4.295,6.456L5.85,6.456ZM5.8,4.218C6.205,4.218 6.459,4.463 6.459,4.81C6.459,5.173 6.205,5.401 5.8,5.401L4.295,5.401L4.295,4.218L5.8,4.218Z" style="fill:rgb(168,85,247);fill-rule:nonzero;"/>
</svg>
